Input #0, matroska,webm, from '/Users/pierce/Repos/power-hour-generator/sample_project/cache/IwBS6QGsH_4.webm':
  Metadata:
    COMPATIBLE_BRANDS: iso6av01mp41
    MAJOR_BRAND     : dash
    MINOR_VERSION   : 0
    ENCODER         : Lavf61.7.100
  Duration: 00:03:57.11, start: 0.000000, bitrate: 669 kb/s
  Stream #0:0: Video: av1 (libdav1d) (Main), yuv420p(tv, bt709), 640x480, SAR 1:1 DAR 4:3, 29.97 fps, 29.97 tbr, 1k tbn (default)
      Metadata:
        HANDLER_NAME    : ISO Media file produced by Google Inc.
        VENDOR_ID       : [0][0][0][0]
        DURATION        : 00:03:57.070000000
  Stream #0:1(eng): Audio: opus, 48000 Hz, stereo, fltp (default)
      Metadata:
        DURATION        : 00:03:57.108000000
Stream mapping:
  Stream #0:0 -> #0:0 (av1 (libdav1d) -> png (native))
Press [q] to stop, [?] for help
Output #0, image2, to 'miami_sample_5s.png':
  Metadata:
    COMPATIBLE_BRANDS: iso6av01mp41
    MAJOR_BRAND     : dash
    MINOR_VERSION   : 0
    encoder         : Lavf61.7.100
  Stream #0:0: Video: png, rgb24(pc, gbr/bt709/bt709, progressive), 1920x1080 [SAR 1:1 DAR 16:9], q=2-31, 200 kb/s, 30 fps, 30 tbn (default)
      Metadata:
        HANDLER_NAME    : ISO Media file produced by Google Inc.
        VENDOR_ID       : [0][0][0][0]
        DURATION        : 00:03:57.070000000
        encoder         : Lavc61.19.101 png
[image2 @ 0x933049180] The specified filename 'miami_sample_5s.png' does not contain an image sequence pattern or a pattern is invalid.
[image2 @ 0x933049180] Use a pattern such as %03d for an image sequence or use the -update option (with -frames:v 1 if needed) to write a single image.
[out#0/image2 @ 0x932c3c480] video:168KiB audio:0KiB subtitle:0KiB other streams:0KiB global headers:0KiB muxing overhead: unknown
frame=    1 fps=0.0 q=-0.0 Lsize=N/A time=00:00:00.03 bitrate=N/A dup=1 drop=0 speed=0.473x    
